<?xml version="1.0" encoding="utf-8"?>
<!-- Generator: Adobe Illustrator 24.2.1, SVG Export Plug-In . SVG Version: 6.00 Build 0)  -->
<svg version="1.1" id="BBCB_x5F_cover_xA0_Image_1_"
	 xmlns="http://www.w3.org/2000/svg" xmlns:xlink="http://www.w3.org/1999/xlink" x="0px" y="0px" viewBox="0 0 416.3 588.6"
	 style="enable-background:new 0 0 416.3 588.6;" xml:space="preserve">
<style type="text/css">
	.st0{fill:#FFFFFF;}
</style>
<path class="st0" d="M397.7,154.8c-1.2-13.9-3.2-34.4-19.7-37.7c-36-2.7-33.6,87.6-38.5,44.8c-1.9-16.8,12.5-68.9,6.9-103.6
	c-3.3-18.1-8.2-54.1-33.3-47.3c-43.3,11.7,10.6,90.9,15.4,123.4c7.9,34.7,5.7,71.5-5.7,105.1c-5.2-11.5-17.4-11.1-21.7,0.7
	c-4.3,10.1-0.8,21-1.4,31.6c0.1,18.9-16.8,19.7-21.4,2c-7.5-33-4.1-76,18.9-101.5c2.6-2.9,6.3-1.9,8.4,0.4
	c6.1,8.5-4.9,17.1-8.1,24.7c-21.5,42.3,38.5,50.3,32.4-35.3c0.4-16.5-16.2-34.5-32.6-24c-15.1,10.4-22.3,28-28.4,44.6
	c-16,41.1-2.6,23.4-20.9,23.2c-35.1-0.4-2.1,62.6-24.7,74c-29-2.8-15.4-68.6-5.2-86.2c1.3-2.2,1.7-1.1,2.6,0.4
	c12.3,16.7,36.6,3.1,42.4-12.8c7.1-15.2,15.1-33.6,10-50.5c-2.7-7.9-13.2-11.2-18.1-3.3c-6.5,14.1-6.8,34.6-24.7,40.2
	c9.9-26.3,35.9-155.5-9.8-142.2c-41.4,12-1.9,80.4-8.3,114.2c-6.7-26-5.8-53.9-18.8-78.2c-11.9-24.3-37.2-23.2-46,2.9
	c-5.7,14.5-8.3,39.4,10,45.7c4.1,2.2,8.8,1.4,13.1,0.3c17-2.5,26.2,17.3,29.3,31.2c10.7,29.1,8.7,35.7-2.2,64
	c-7.1,15.8-7.5,33.4-8.5,50c-9.1-6.4-8.8-19.4-6.8-29.3c4.5-22.7,19.3-43.3,18.7-66.9c-2.1-11.3-2.5-27.9-14.9-32.7
	c-10.2-3.4-18.9,4.9-19.6,14.9c-6,35.2,5.5,70.5,1.1,105.6c-4.8,25.9-23.4,7.8-19.7-10c3.3-32.3,20.4-63.1,14.3-96.2
	c0.1-15.8-16.4-25.4-25.9-10c-7.8,10.6-8.3,24.5-9,37.1c0.2,0.8-0.6,1.3-1.3,0.6c-7.5-7-17.6-13-26.7-5c10.4-25.5,18-60.3-8.7-78.5
	c13.3-10.1,20.1,14.3,33,14.4c23,0.6,21.2-45.8,7.7-56.8c-21-17.1-40.9,8.8-51,25c-3.9,6.2-5.4,16.5-13.3,17
	c-12.4-3.5-26.8-20.2-38-4.9c-33.7,43.1-9.3,111.8,33,32.9c-9.5,37.9-5.5,77-3,115.4c-4.4,1.5-14-9.9-23.6-3.3
	c-20.8,14.1-24.8,46.7-17.6,69.2c19.1,37.9,50.8-1.9,54.6-28c0.7,4.6,6.5,12.4,3.9,16.2c-8.9,7-13.6,17.6-20,26.7
	c-21.3,35.5-33,77.1-38.2,118c-4.1,30.4-8,122.8,42.2,113.3c27.3-5.1,42.3-32.4,48.5-59c-0.8,37.9,30.2,68.7,55.3,26.7
	c4,24.9,33.2,49.5,43,13.5c0.2-0.7,0.2-1.4,0.9-2.1c5.3,0.5,11,0.5,14.5-3.5c22-24.9-1.1-63.7,0.3-93.8c-0.2-12.2,1-24.6,5.9-35.9
	c12.5-21.3,24.9,0.8,21.9,16.6c-1,31.9-19.8,63.3-11.4,95.1c2.3,8.1,10.9,13.6,19,10c12.6-6.8,11.8-22.9,11-35.3
	c0.3-22.5-6.1-44.1-6.7-66.4c-2.4-13.8,10-44.6,18.5-16.9c6.9,29.6-10.1,58.4-6.7,88c-0.3,20.4,16.7,54,30.8,20.2
	c7.7-24.6-7.7-48.3-7.4-72.8c0-10.4,2.5-94.7,11.6-47.3c7,36.4,8.9,73.4,2.1,110c-6,29-27.9,81.9,4.1,92.5
	c47.3,15.7,10.8-162.3,11.8-164.1c1-1.8,3.3-1.7,4,0.5c9.8,32.7,37.5,44.6,52.5,7.5c12.3-33,13.1-71.2,3.8-105.1
	c18.5-21.5,0.3-49.4-2.2-74.5C381.9,213.5,400.5,185.4,397.7,154.8z M58.5,258.7c-1.8,7.7-5.2,22-12.8,21.5
	c-12.2-0.8-7.4-25.7,1.9-30.8C54.2,244.8,60.6,248.7,58.5,258.7z M74,139.4c0.8-13.6,1.5-36.1,9.1-40.4c24.6,12,13.7,48.2-8.1,56.9
	C73.9,150.3,73.7,145,74,139.4z M74.7,246.6c-6-18.7-3.3-40.2,15.8-48C131.5,188,120.6,292.5,74.7,246.6z M143.7,501.5
	c-9.5,0-16.8,0.1-16.8-25.5c0-38.5,44.8-47.1,38.8-1.7C163.9,487.7,159.1,501.5,143.7,501.5z M178.7,387.5
	c-1.3,12.3-4.6,24.6-8.7,36.2c-5.3-9.5-10.1-19.4-20.6-23.8c14.4-11.3-2.5-27-3.4-40.4c-0.5-11.2,10-33,23.4-23.1
	C180.9,350.6,178.9,370.3,178.7,387.5z M211.5,404.4c-3.8,17.2-13,39.7-18.5,52.9c-19.4-30.6-1.4-63.1,5.2-94.5
	c3.6-22.6-3.3-58-30.9-60c-39.8-2.8-55.2,77.6-36.2,102.7c-9.3,7.1-14.1,18.1-17.7,28.9c-1.9-9.3-0.7-20-4.9-29.1
	c-15.1-22.4-34.5,1.3-31.1,20.8c2.6,23.8,23.4,54,1.3,73.8c-24.8,13-33.4-34.2-36.4-50.7c-4.7-38.1-1.9-78.8,15.2-113.7
	c6.4-11.8,17.8-23.7,32.1-23.8c10.3,0.8,13.6,16.4,7.5,23.2c-9,11.4-27.4,15.5-28.7,32.2c-2.2,10.6,5.2,25,17.2,24.5
	c14.9-0.9,22.7-16.7,29.6-28c9.5-19.3,15.5-40.1,16.3-61.8c18.1,10.8,34.7-9.9,41-25c2.1,11.6,4.8,30.2,19.5,30.9
	c5.3,0.6,10.1-8.6,13.6-2.3C190.6,336.3,216.2,371.6,211.5,404.4z M301.5,332.5c-7.6-25.4-31.7-23.2-39.2,1.2
	c-2.1-9.3-5-28.4-19.3-20.8c-4.7,1.3-6.7,13.6-9.4,12.6c-10.6-24.1,7.9-6.7,24.3-42.1c4.5,22.7,21.8,35.4,44.5,26.7
	C302.7,317.3,301.6,325.1,301.5,332.5z M312.6,297.6c0.6-2.5,3.1-7.6,4.8-9.5C318.3,293.5,317.9,295.7,312.6,297.6z M333.6,313.5
	c1.9,0.3,3.3,0.4,5.5,0.3c-0.9,2.4-2.5,3.8-3.6,5.8C334.4,317.9,333.5,315.5,333.6,313.5z M364.8,384.2c-0.6,10.2-3.5,18.4-6.4,21.2
	c-16.2,15.6-32.7-56.5-7.4-56.5C362.7,348.9,365.5,372.6,364.8,384.2z M365.7,246.5c-5.4,15.1-6.7,31.6-5,47.5
	c0.5,3.1-5.8,2.2-7.9,4.4c5.9-22.2-2.6-44.4-2.1-66.8C356,188.5,375.6,223.6,365.7,246.5z"/>
</svg>
